<?xml version="1.0" encoding="utf-8"?>
<!-- Generator: Adobe Illustrator 25.4.1, SVG Export Plug-In . SVG Version: 6.00 Build 0)  -->
<svg version="1.1" xmlns="http://www.w3.org/2000/svg" xmlns:xlink="http://www.w3.org/1999/xlink" x="0px" y="0px"
	 viewBox="0 0 761 256" enable-background="new 0 0 761 256" xml:space="preserve">
<g id="Kasten_00000045588940817225090170000014015454618541351608_">
	<rect fill="#21314D" width="761" height="256"/>
</g>
<g id="Blade_00000056393830187627469590000001934641379702391954_">
	<g id="Blade_00000115488034364365278570000014383065578570728376_">
		<path id="Würfel_00000095330303590107368250000006829467438266176953_" fill="#84BC34" d="M113.1944,94.129
			c-4.475-1.0229-9.2058-2.8129-24.9323-10.9958C67.4213,72.393,62.8184,71.6259,60.1334,75.9731
			c-3.58,5.7536-0.2557,20.4574,14.0644,47.3076c9.3336,17.6445,24.0373,40.2754,26.7223,43.344
			c0.6393,0.6393,1.2786,0.7672,1.9179,0.3836c0.6393-0.3836,0.895-0.895,0.3836-1.79
			c-2.1736-4.0915-9.8451-19.9459-13.2972-28.1289c-8.1829-19.8181-10.1008-26.4667-7.2879-28.001
			c0.7672-0.3836,1.79-0.1279,4.0915,1.1507c7.9272,4.2193,25.3159,17.6445,28.3845,26.9781
			c1.2786,4.0915,2.0457,8.8222,2.3014,25.5717c0.3836,22.1195,2.0457,26.211,7.4158,26.211c7.16,0,19.1787-9.973,37.0788-35.0332
			c11.7629-16.3659,25.5716-39.5083,26.978-43.2162c0.3836-0.7672,0-1.4064-0.5114-1.79c-0.6393-0.3836-1.2786-0.2557-1.79,0.5114
			c-2.685,3.8358-13.553,17.9002-19.5623,24.8046c-14.3201,16.4937-19.5623,21.3524-22.3752,19.8181
			c-0.7672-0.3836-1.0229-1.4064-1.0229-3.8358c0-8.5665,3.7079-29.2796,10.8679-36.3118
			c3.0686-3.0686,7.2879-6.0094,22.7587-14.5759c20.4573-11.3794,23.398-14.7037,20.713-19.1788
			c-3.58-5.7536-18.7951-10.4844-51.1432-12.4023c-21.0966-1.2786-49.6089-0.7672-53.7004-0.1279
			c-0.895,0.1279-1.2786,0.6393-1.4064,1.2786c0,0.6393,0.3836,1.1507,1.4064,1.1507c4.8586,0.2557,23.5259,2.0457,32.8595,3.3243
			c22.503,3.1965,29.6631,5.1143,29.6631,8.1829c0,0.7672-0.7672,1.5343-3.0686,2.685
			C144.5197,89.0146,123.2952,96.3026,113.1944,94.129"/>
	</g>
</g>
<g id="freenet">
	<g id="Text_00000018233044646709815630000010139649164768858556_">
		<path id="net_00000118388088504095158600000004163244688393149569_" fill="#FFFFFF" d="M606.3997,119.3691h-3.2249
			c-12.8995,0-14.4171,1.5175-14.4171,12.899v1.8969h32.2488v-1.8969C621.0064,120.6969,619.2991,119.3691,606.3997,119.3691
			 M634.8544,146.4949h-46.2865c0,7.967,0.5691,10.433,2.4661,12.1402c1.7073,1.7072,3.9837,2.2763,12.1407,2.2763h3.2249
			c7.9674,0,10.2437-0.3794,12.1407-2.2763c0.9485-0.9485,1.5176-1.8969,1.897-3.4144h14.2274
			c-2.2764,13.468-9.2952,18.5897-25.0402,18.5897h-9.8644c-9.2952,0-14.9861-1.7072-19.1595-6.0701
			c-4.1734-4.1732-5.8807-9.6742-5.8807-19.1588V131.699c0-9.4845,1.7073-14.9856,5.8807-19.1588
			c4.363-4.3629,10.054-6.0701,19.1595-6.0701h9.8644c9.2952,0,14.9862,1.7072,19.1596,5.8804
			c4.363,4.1732,5.8806,9.4845,5.8806,19.3485L634.8544,146.4949z M693.8507,173.6206h-13.6583
			c-9.2952,0-14.7964-1.7072-19.1596-6.0701c-4.363-4.1732-5.8806-9.6742-5.8806-19.1588v-28.4536h-8.3467v-13.0887h8.3467V90.3464
			h14.0377v16.5031h19.1596l-1.7073,13.0887h-17.4523v28.6433c0,10.0536,2.4661,11.9505,14.4171,11.9505h10.4334v13.0887
			L693.8507,173.6206z M533.9347,106.6598c9.2952,0,14.7964,1.7072,19.1595,6.0701c4.3631,4.1732,5.8807,9.6742,5.8807,19.1588
			v41.732h-14.0377v-39.266c0-7.7773-0.5691-10.2433-2.4661-12.1402c-1.7073-1.8969-3.9837-2.2763-12.1407-2.2763h-16.1244v53.6825
			h-14.0377v-66.9608H533.9347L533.9347,106.6598z"/>
		<path id="free_00000134962383033659826450000006705828997229569450_" fill="#FFFFFF" d="M277.4621,119.9381h-18.9699v53.6825
			h-14.0377v-53.6825h-8.3467v-13.0887h8.3467c0.1897-9.8639,1.7073-14.6062,5.8807-18.7794
			C254.6983,83.7072,260.3893,82,269.4948,82h13.6583v13.0887h-10.4334c-11.951,0-14.2274,1.3278-14.4171,11.5711h20.8669
			L277.4621,119.9381L277.4621,119.9381z"/>
		<path fill="#FFFFFF" d="M484.6131,131.8887c0-10.0536-1.7073-15.1753-5.8807-19.3484c-4.363-4.1732-10.054-5.8804-19.1596-5.8804
			h-9.8643c-9.2952,0-14.9862,1.7072-19.1596,6.0701c-4.3631,4.3629-5.8807,9.8639-5.8807,19.1588v16.8825
			c0,9.4845,1.7073,14.7959,5.8807,19.1588c4.363,4.3629,10.054,6.0701,19.1596,6.0701h9.8643
			c15.5553,0,22.5741-5.1216,25.0403-18.5897h-14.2274c-0.3794,1.7072-0.9485,2.6557-1.897,3.4144
			c-1.897,1.8969-4.1734,2.2763-12.1407,2.2763h-3.2249c-8.157,0-10.2437-0.5691-12.1407-2.2763
			c-1.897-1.8969-2.4661-4.3629-2.4661-12.1402h46.2865v-14.7959L484.6131,131.8887z M470.5754,133.9753h-32.2488v-1.8969
			c0-11.3815,1.7073-12.899,14.4171-12.899h3.2249c12.8995,0,14.6068,1.5175,14.4171,12.899L470.5754,133.9753L470.5754,133.9753z
			 M409.3027,131.8887c0-10.0536-1.7073-15.1753-5.8806-19.3484c-4.3631-4.1732-10.054-5.8804-19.1596-5.8804h-9.8643
			c-9.2952,0-14.9862,1.7072-19.1596,6.0701c-4.363,4.3629-5.8807,9.8639-5.8807,19.1588v16.8825
			c0,9.4845,1.7073,14.7959,5.8807,19.1588c4.363,4.3629,10.054,6.0701,19.1596,6.0701h9.8643
			c15.5553,0,22.5742-5.1216,25.0403-18.5897h-14.2274c-0.3794,1.7072-0.9485,2.6557-1.897,3.4144
			c-1.897,1.8969-4.1734,2.2763-12.1407,2.2763h-3.2249c-8.157,0-10.4334-0.5691-12.1407-2.2763
			c-1.897-1.8969-2.4661-4.3629-2.4661-12.1402h46.2865C409.4925,146.6845,409.3027,131.8886,409.3027,131.8887z M395.265,133.9753
			h-32.2488v-1.8969c0-11.3815,1.7073-12.899,14.4171-12.899h3.2249c12.8995,0,14.6068,1.5175,14.4171,12.899L395.265,133.9753
			L395.265,133.9753z M290.9308,173.6206v-66.9608h24.6608c18.0214,0,24.8505,6.4495,25.2299,22.1938h-14.2274
			c-0.1897-3.035-0.9485-5.1216-2.4661-6.8289c-1.897-2.0866-4.5528-2.466-12.5201-2.466h-6.8292v53.6825h-13.848L290.9308,173.6206
			z"/>
	</g>
</g>
</svg>
