<svg xmlns="http://www.w3.org/2000/svg" viewBox="0 0 48 48">
  <path fill="#4caf50" d="M45 16.2l-5 2.75-5 4.75V40h7a3 3 0 0 0 3-3V16.2z"/>
  <path fill="#1e88e5" d="M3 16.2l3.5 2.75L13 23.7V40H6a3 3 0 0 1-3-3V16.2z"/>
  <polygon fill="#e53935" points="35,11.2 24,19.45 13,11.2 12,17 13,23.7 24,31.95 35,23.7 36,17"/>
  <path fill="#c62828" d="M3 12.298V16.2l10 7.5V11.2L9.876 8.898C9.132 8.27 8.228 7.989 7.133 8.001 4.862 8.027 3 9.885 3 12.298z"/>
  <path fill="#fbc02d" d="M45 12.298V16.2l-10 7.5V11.2l3.124-2.302C38.868 8.27 39.772 7.989 40.867 8.001 43.138 8.027 45 9.885 45 12.298z"/>
</svg>
