<?xml version="1.0" encoding="utf-8"?>
<!DOCTYPE svg PUBLIC "-//W3C//DTD SVG 1.1//EN" "http://www.w3.org/Graphics/SVG/1.1/DTD/svg11.dtd">
<svg version="1.1" xmlns="http://www.w3.org/2000/svg" xmlns:xlink="http://www.w3.org/1999/xlink" x="0px" y="0px"
	 width="263px" height="154px" viewBox="0 0 263 154" enable-background="new 0 0 263 154" xml:space="preserve">
	 <style>
	 	.maintext {fill: #fff;}
	 	.point {fill: #ee955c;}
	 </style>
	<g>
		<path class="maintext" d="M34.885,93.998l-8.927,35.462l-6.453,0.714l8.927-35.462L34.885,93.998z"/>
	</g>
	<g>
		<path class="maintext" d="M53.396,91.948l-8.927,35.463l-6.453,0.714l8.927-35.463L53.396,91.948z"/>
		<path class="maintext" d="M80.005,99.756c0.165,1.491,0.098,2.945-0.201,4.361c-0.3,1.417-0.908,2.703-1.825,3.857
			c-0.918,1.154-2.185,2.136-3.801,2.943c-1.617,0.809-3.668,1.35-6.152,1.625l-1.653,0.183l1.341,12.113l-7.222,0.799l-3.77-34.058
			l9.458-1.047c2.189-0.242,4.107-0.207,5.753,0.106c1.646,0.313,3.036,0.866,4.17,1.661c1.133,0.794,2.02,1.82,2.663,3.076
			C79.407,96.635,79.82,98.094,80.005,99.756z M65.717,106.809l1.421-0.158c2.035-0.225,3.523-0.798,4.467-1.72
			c0.943-0.923,1.314-2.292,1.113-4.108c-0.188-1.693-0.788-2.893-1.801-3.598c-1.014-0.705-2.507-0.949-4.479-0.73l-1.841,0.204
			L65.717,106.809z"/>
		<path class="maintext" d="M114.972,102.324c0.29,2.624,0.248,5.049-0.126,7.275c-0.376,2.227-1.106,4.179-2.193,5.855
			c-1.088,1.678-2.545,3.041-4.37,4.092s-4.042,1.721-6.651,2.01c-2.608,0.288-4.919,0.119-6.93-0.507s-3.727-1.639-5.146-3.038
			c-1.421-1.399-2.558-3.148-3.41-5.246c-0.854-2.099-1.427-4.469-1.719-7.108s-0.251-5.069,0.125-7.288s1.107-4.159,2.197-5.82
			c1.09-1.662,2.547-3.014,4.373-4.057s4.052-1.71,6.677-2c2.608-0.289,4.914-0.124,6.916,0.496
			c2.002,0.619,3.713,1.624,5.133,3.016c1.419,1.392,2.555,3.129,3.406,5.211C114.104,97.299,114.678,99.668,114.972,102.324z
			 M91.862,104.881c0.197,1.787,0.53,3.373,0.998,4.76s1.079,2.537,1.832,3.452c0.754,0.914,1.649,1.582,2.687,2.001
			c1.037,0.42,2.23,0.555,3.582,0.406c1.382-0.154,2.536-0.549,3.465-1.186c0.928-0.637,1.651-1.484,2.171-2.539
			c0.521-1.057,0.853-2.312,0.998-3.766c0.146-1.455,0.119-3.075-0.078-4.861s-0.526-3.373-0.986-4.76
			c-0.46-1.388-1.06-2.543-1.799-3.469c-0.739-0.924-1.627-1.596-2.663-2.016c-1.037-0.419-2.239-0.554-3.605-0.402
			c-1.352,0.149-2.495,0.543-3.43,1.182c-0.937,0.638-1.672,1.489-2.206,2.555s-0.878,2.326-1.031,3.781
			C91.642,101.475,91.665,103.096,91.862,104.881z"/>
		<path class="maintext" d="M140.364,107.225c0.168,1.521,0.06,2.921-0.325,4.197c-0.386,1.277-1.031,2.401-1.938,3.374
			c-0.906,0.974-2.06,1.772-3.461,2.399c-1.399,0.627-3.041,1.043-4.919,1.252c-1.646,0.182-3.254,0.187-4.82,0.016
			c-1.568-0.174-3.042-0.529-4.422-1.068l-0.743-6.709c0.785,0.275,1.577,0.537,2.374,0.787c0.798,0.25,1.604,0.463,2.418,0.641
			c0.812,0.177,1.621,0.3,2.422,0.368s1.59,0.06,2.367-0.026c0.792-0.088,1.461-0.252,2.009-0.493s0.978-0.54,1.292-0.897
			s0.529-0.766,0.643-1.227c0.114-0.461,0.142-0.955,0.084-1.483c-0.071-0.637-0.269-1.185-0.595-1.644s-0.757-0.875-1.294-1.248
			c-0.536-0.373-1.174-0.723-1.908-1.051c-0.736-0.327-1.557-0.668-2.46-1.024c-0.756-0.294-1.605-0.655-2.549-1.085
			c-0.944-0.431-1.853-0.994-2.723-1.691c-0.871-0.697-1.633-1.572-2.282-2.625c-0.651-1.052-1.062-2.354-1.234-3.907
			c-0.169-1.522-0.067-2.913,0.304-4.173c0.371-1.258,0.978-2.355,1.817-3.289s1.9-1.691,3.18-2.273s2.742-0.964,4.389-1.146
			c0.823-0.091,1.633-0.126,2.43-0.104c0.796,0.021,1.59,0.091,2.381,0.208c0.791,0.116,1.592,0.279,2.4,0.488
			c0.81,0.21,1.646,0.462,2.513,0.76l-1.708,5.872c-0.734-0.249-1.419-0.464-2.053-0.646c-0.633-0.182-1.246-0.325-1.839-0.433
			c-0.594-0.107-1.171-0.174-1.731-0.197c-0.562-0.025-1.121-0.006-1.68,0.056c-1.212,0.134-2.105,0.56-2.678,1.274
			c-0.573,0.717-0.801,1.609-0.683,2.682c0.063,0.574,0.217,1.072,0.461,1.494c0.243,0.42,0.6,0.802,1.069,1.143
			c0.471,0.342,1.065,0.676,1.786,1.006c0.72,0.328,1.59,0.695,2.61,1.102c1.232,0.492,2.375,1.007,3.425,1.543
			c1.049,0.536,1.971,1.157,2.765,1.863c0.793,0.706,1.438,1.535,1.937,2.485C139.894,104.745,140.217,105.889,140.364,107.225z"/>
		<path class="maintext" d="M159.019,114.732l-7.198,0.797l-3.104-28.047l-8.549,0.945l-0.666-6.01l24.273-2.687l0.666,6.011
			l-8.526,0.943L159.019,114.732z"/>
		<path class="maintext" d="M191.255,111.164l-19.614,2.172l-3.77-34.059l19.614-2.17l0.655,5.917l-12.394,1.372l0.828,7.479
			l11.53-1.276l0.655,5.917l-11.53,1.276l0.972,8.782l12.393-1.372L191.255,111.164z"/>
		<path class="maintext" d="M224.303,90.223c0.29,2.625,0.249,5.05-0.126,7.276c-0.374,2.227-1.105,4.179-2.192,5.855
			c-1.088,1.677-2.544,3.04-4.369,4.091s-4.043,1.721-6.652,2.01s-4.919,0.12-6.93-0.506c-2.011-0.627-3.727-1.639-5.146-3.039
			c-1.421-1.398-2.558-3.147-3.41-5.246c-0.854-2.098-1.427-4.468-1.719-7.107c-0.292-2.641-0.251-5.07,0.125-7.289
			s1.107-4.158,2.197-5.82c1.089-1.661,2.547-3.013,4.373-4.056c1.826-1.043,4.052-1.71,6.677-2.001
			c2.608-0.289,4.914-0.124,6.916,0.496c2.002,0.619,3.713,1.625,5.133,3.016c1.42,1.391,2.555,3.128,3.406,5.211
			S224.009,87.566,224.303,90.223z M201.194,92.78c0.197,1.786,0.53,3.372,0.998,4.759s1.079,2.537,1.832,3.452
			c0.754,0.915,1.649,1.582,2.687,2.002s2.23,0.555,3.582,0.405c1.382-0.153,2.537-0.548,3.465-1.186
			c0.928-0.637,1.651-1.483,2.171-2.539c0.521-1.056,0.853-2.311,0.998-3.766c0.146-1.454,0.119-3.074-0.078-4.861
			c-0.197-1.785-0.526-3.372-0.986-4.76c-0.46-1.387-1.06-2.543-1.799-3.468c-0.738-0.924-1.627-1.597-2.663-2.016
			c-1.037-0.42-2.239-0.554-3.605-0.403c-1.352,0.15-2.495,0.544-3.43,1.182c-0.937,0.639-1.671,1.49-2.206,2.555
			c-0.534,1.066-0.878,2.326-1.031,3.781S200.997,90.994,201.194,92.78z"/>
	</g>
	<g>
		<path class="point" d="M229.975,103.507c-0.081-0.729-0.045-1.358,0.109-1.886c0.153-0.529,0.399-0.969,0.737-1.32
			c0.339-0.352,0.748-0.625,1.23-0.82c0.481-0.195,1.01-0.324,1.584-0.387c0.544-0.061,1.067-0.049,1.572,0.037
			c0.504,0.086,0.961,0.264,1.367,0.533c0.407,0.27,0.748,0.645,1.021,1.125c0.272,0.48,0.45,1.086,0.531,1.815
			c0.077,0.699,0.034,1.31-0.128,1.83c-0.163,0.521-0.412,0.966-0.749,1.333c-0.336,0.367-0.741,0.652-1.215,0.854
			c-0.473,0.201-0.979,0.332-1.523,0.393c-0.574,0.063-1.119,0.049-1.633-0.043c-0.513-0.093-0.974-0.282-1.383-0.566
			c-0.408-0.285-0.746-0.664-1.01-1.139C230.223,104.792,230.052,104.206,229.975,103.507z"/>
	</g>
</svg>