<svg xmlns="http://www.w3.org/2000/svg" xmlns:xlink="http://www.w3.org/1999/xlink" viewBox="0 0 299 69"><defs><style>.cls-1{fill:none;}.cls-2{fill:#fff;}.cls-3{clip-path:url(#clip-path);}.cls-4{fill:#1d1d1d;}.cls-5{fill:#e32178;}</style><clipPath id="clip-path"><rect class="cls-1" x="10.19" y="9.93" width="278.62" height="49.13"/></clipPath></defs><title>t-onlinede_logo</title><g id="Ebene_2" data-name="Ebene 2"><rect class="cls-2" width="299" height="69"/></g><g id="svg2"><g id="g10"><g id="g12"><g class="cls-3"><g id="g14"><g id="g20"><path id="path22" class="cls-4" d="M25.27,29.72V47.26c0,1.74,0,3.07.09,4a7.43,7.43,0,0,0,.75,3.2c1,1.62,3,2.44,6,2.44a16,16,0,0,0,3.42-.43v-4.1a8.91,8.91,0,0,1-2.38.43,2.61,2.61,0,0,1-2.51-1.34,10.77,10.77,0,0,1-.35-3.61V29.72h5.24V25.58H30.25v-10l-5,2.1.05,7.89H20.84v4.14ZM37.15,42.35h13V37h-13Zm21.68-12.6q-3.06,4.32-3.06,11.16,0,7.1,3.42,11.66t10,4.62a11.66,11.66,0,0,0,8.95-3.58q4.14-4.43,4.14-12.73,0-7.49-3.49-11.78a11.65,11.65,0,0,0-9.53-4.46,12,12,0,0,0-10.42,5.11m16,1.95c1.58,2.21,2.37,5.29,2.37,9.21q0,6.2-2.7,9.7a6.42,6.42,0,0,1-5.37,2.58,6.88,6.88,0,0,1-5.93-3c-1.6-2.28-2.41-5.37-2.41-9.28s.83-6.92,2.48-9.24a6.65,6.65,0,0,1,5.66-3,6.84,6.84,0,0,1,5.9,3.06M93.76,56.24V41.37A39.43,39.43,0,0,1,94,36.06a10,10,0,0,1,1.75-4.75,6.42,6.42,0,0,1,5.38-2.67,5.33,5.33,0,0,1,3.22,1,4.74,4.74,0,0,1,1.79,2.6,25.67,25.67,0,0,1,.49,6V56.24h5V36.42a28.52,28.52,0,0,0-.26-4.49,8.23,8.23,0,0,0-3.06-5.47,9.18,9.18,0,0,0-5.76-1.82,10.46,10.46,0,0,0-9.12,5.08V25.58H88.78V56.24Zm32-44.43h-5V56.24h5Zm14.55,0h-5v6.77h5Zm0,13.77h-5V56.24h5Zm14.42,30.66V41.37a41.18,41.18,0,0,1,.26-5.31,10,10,0,0,1,1.76-4.75,6.38,6.38,0,0,1,5.37-2.67,5.31,5.31,0,0,1,3.22,1,4.69,4.69,0,0,1,1.79,2.6,25.12,25.12,0,0,1,.49,6V56.24h5V36.42a28.52,28.52,0,0,0-.26-4.49,8.23,8.23,0,0,0-3.06-5.47,9.14,9.14,0,0,0-5.76-1.82,10.46,10.46,0,0,0-9.12,5.08V25.58h-4.65V56.24Zm50-18.84q-.75-6.48-4.2-9.77a11.24,11.24,0,0,0-8-3,11.08,11.08,0,0,0-9.28,4.52,18.77,18.77,0,0,0-3.49,11.66,19.75,19.75,0,0,0,3,11.29q3.42,5.09,10.09,5.08a10.84,10.84,0,0,0,9.31-4.56,14.58,14.58,0,0,0,2.51-6.18h-4.82a18.15,18.15,0,0,1-1.2,3.25,6.12,6.12,0,0,1-5.86,3.49q-5.17,0-7.13-5.57a17.34,17.34,0,0,1-.88-5.4h20.22c-.05-1.94-.15-3.54-.3-4.82m-19.86.81a16.69,16.69,0,0,1,1.67-5.83,6.49,6.49,0,0,1,6.05-3.74,6.37,6.37,0,0,1,6.15,4.14A16,16,0,0,1,200,38.21Zm61.78-26.4H243V30.66a9.13,9.13,0,0,0-1.79-2.74,9.78,9.78,0,0,0-7.43-3.28,10.71,10.71,0,0,0-8.92,4.46q-3.32,4.32-3.32,11.81,0,7.65,3.55,12.08a10.7,10.7,0,0,0,8.66,4.2q6.61,0,9.54-6.58v5.63h3.38Zm-6.08,19.24q2.56,3.64,2.57,10a16.81,16.81,0,0,1-2.57,9.7,7.53,7.53,0,0,1-6.51,3.42,7.37,7.37,0,0,1-6.38-3.45Q225.24,47,225.23,41a17.78,17.78,0,0,1,2.21-9.41A7.36,7.36,0,0,1,234,27.7a7.67,7.67,0,0,1,6.61,3.35m32.94-3.42a10.38,10.38,0,0,0-7.42-3,10.77,10.77,0,0,0-8.82,4.46q-3.55,4.51-3.55,11.78,0,6.93,3.06,11.39a11,11,0,0,0,9.57,4.92,10.47,10.47,0,0,0,8.92-4.39,14.63,14.63,0,0,0,2.38-5.54h-3.52q-2.15,6.87-7.75,6.87-5.18,0-7.55-5a18.21,18.21,0,0,1-1.46-7.36h20.73q0-9.82-4.59-14.13m-16.14,11.2q.58-6,3.38-8.89a7.29,7.29,0,0,1,5.34-2.34,6.4,6.4,0,0,1,3.51,1A8.9,8.9,0,0,1,273,32.29a15.89,15.89,0,0,1,1.5,6.54Z"/></g><path id="path24" class="cls-5" d="M217.62,57.08h-8v-8h8Z"/></g></g></g></g></g></svg>