<svg width="884" height="159" viewBox="0 0 884 159" fill="none" xmlns="http://www.w3.org/2000/svg">
<g clip-path="url(#clip0_1_5070)">
<path d="M587.97 126.5H556.859V41.4937H587.97V51.5258C592.562 44.2138 600.21 39.1147 611.091 39.1147C622.142 39.1147 630.302 44.0478 634.894 52.7158C640.841 42.6888 651.215 39.1147 661.413 39.1147C680.624 39.1147 690.993 51.8667 690.993 71.7557V126.5H659.882V80.2578C659.882 72.0978 656.143 67.5057 649.855 67.5057C643.562 67.5057 639.481 72.2687 639.481 80.5997V126.5H608.37V80.2578C608.37 72.0978 604.631 67.5057 598.343 67.5057C592.05 67.5057 587.969 72.2687 587.969 80.5997L587.97 126.5Z" fill="black"/>
<path d="M821.512 34.699C811.992 34.699 804.168 26.875 804.168 17.525C804.168 8.17496 811.992 0.355957 821.512 0.355957C831.369 0.355957 839.022 8.34596 839.022 17.525C839.022 26.704 831.369 34.699 821.512 34.699ZM806.039 126.5V41.494H837.15V126.5H806.039Z" fill="black"/>
<path d="M883.47 3.83105V126.5H852.359V3.83105H883.47Z" fill="black"/>
<path d="M745.063 101.559C735.054 101.559 727.415 93.925 727.415 84.085C727.415 74.24 735.054 66.606 745.063 66.606C754.903 66.606 762.542 74.24 762.542 84.085C762.542 93.925 754.903 101.559 745.063 101.559ZM761.855 49.4699C757.274 43.5339 748.797 39.4609 738.957 39.4609C715.712 39.4609 698.402 59.9909 698.402 84.0839C698.402 108.853 715.544 128.702 738.957 128.702C748.797 128.702 757.274 124.798 761.855 118.525V126.496H790.867V41.4959H761.855V49.4699Z" fill="black"/>
<path d="M144.234 101.562C134.225 101.562 126.586 93.9279 126.586 84.0879C126.586 74.2429 134.225 66.6089 144.234 66.6089C154.074 66.6089 161.713 74.2429 161.713 84.0879C161.713 93.9279 154.074 101.562 144.234 101.562ZM161.027 49.4738C156.446 43.5378 147.969 39.4648 138.129 39.4648C114.884 39.4648 97.5742 59.9959 97.5742 84.0879C97.5742 108.857 114.716 128.706 138.129 128.706C147.969 128.706 156.446 124.802 161.027 118.529V126.5H190.04V41.4998H161.027V49.4738Z" fill="#7D2EFF"/>
<path d="M252.307 39.465C242.635 39.465 235.177 43.2 229.917 49.813V3.83398H200.059V126.502H230.085V81.2C230.085 72.381 234.328 67.116 241.113 67.116C247.726 67.116 251.459 71.699 251.459 80.183V126.501H281.488V73.057C281.488 52.359 270.295 39.465 252.307 39.465Z" fill="#7D2EFF"/>
<path d="M429.267 101.225C419.427 101.225 412.306 93.5909 412.306 84.0879C412.306 74.5869 419.427 66.9478 429.267 66.9478C439.107 66.9478 446.238 74.5869 446.238 84.0879C446.238 93.5909 439.108 101.225 429.267 101.225ZM429.267 39.4648C403.313 39.4648 383.801 58.6369 383.801 84.0879C383.801 109.536 403.313 128.708 429.267 128.708C455.231 128.708 474.742 109.536 474.742 84.0879C474.743 58.6369 455.231 39.4648 429.267 39.4648Z" fill="#7D2EFF"/>
<path d="M333.236 101.225C323.396 101.225 316.275 93.5909 316.275 84.0879C316.275 74.5869 323.396 66.9478 333.236 66.9478C343.076 66.9478 350.206 74.5869 350.206 84.0879C350.207 93.5909 343.077 101.225 333.236 101.225ZM333.236 39.4648C307.282 39.4648 287.77 58.6369 287.77 84.0879C287.77 109.536 307.282 128.708 333.236 128.708C359.2 128.708 378.711 109.536 378.711 84.0879C378.712 58.6369 359.2 39.4648 333.236 39.4648Z" fill="#7D2EFF"/>
<path d="M72.2983 41.5L52.6173 91.383L33.1083 41.5H0.529297L36.8413 127.182L23.7763 158.056H55.6663L104.029 41.5H72.2983Z" fill="#7D2EFF"/>
<path d="M498.667 88.3271C487.124 88.3271 478.469 97.6591 478.469 108.52C478.469 119.205 486.785 128.029 497.99 128.029C509.523 128.029 518.179 118.868 518.179 107.838C518.178 96.9821 509.86 88.3271 498.667 88.3271Z" fill="#7D2EFF"/>
<path d="M521.225 3.83496L489.334 80.861H524.96L556.86 3.83496H521.225Z" fill="#7D2EFF"/>
</g>
<defs>
<clipPath id="clip0_1_5070">
<rect width="884" height="159" fill="white"/>
</clipPath>
</defs>
</svg>
